<svg data-v-423bf9ae="" xmlns="http://www.w3.org/2000/svg" viewBox="0 0 301 125" width="150" height="50" class="iconLeft"><!----><!----><!----><g data-v-423bf9ae="" id="0e640294-fc63-442c-b6b7-96ffb678dcdd" fill="#261624" transform="matrix(4.160887909201205,0,0,4.160887909201205,163.03000321061361,20.77173738218729)"><path d="M2.03 14.18L2.03 4.93L2.03 4.93Q2.03 4.44 1.98 4.14L1.98 4.14L1.98 4.14Q1.93 3.84 1.79 3.66L1.79 3.66L1.79 3.66Q1.64 3.49 1.36 3.42L1.36 3.42L1.36 3.42Q1.08 3.36 0.63 3.33L0.63 3.33L0.63 2.80L4.89 2.80L4.89 3.33L4.89 3.33Q4.44 3.35 4.17 3.42L4.17 3.42L4.17 3.42Q3.89 3.49 3.75 3.67L3.75 3.67L3.75 3.67Q3.60 3.85 3.55 4.17L3.55 4.17L3.55 4.17Q3.50 4.49 3.50 5.03L3.50 5.03L3.50 13.61L3.50 13.61Q3.50 15.37 2.76 16.30L2.76 16.30L2.76 16.30Q2.02 17.22 0.59 17.22L0.59 17.22L0.59 17.22Q-0.38 17.22-0.96 16.85L-0.96 16.85L-0.96 16.85Q-1.54 16.48-1.54 15.86L-1.54 15.86L-1.54 15.86Q-1.54 15.50-1.35 15.31L-1.35 15.31L-1.35 15.31Q-1.16 15.12-0.83 15.12L-0.83 15.12L-0.83 15.12Q-0.56 15.12-0.40 15.25L-0.40 15.25L-0.40 15.25Q-0.24 15.39-0.03 15.78L-0.03 15.78L-0.03 15.78Q0.21 16.23 0.39 16.39L0.39 16.39L0.39 16.39Q0.56 16.55 0.84 16.55L0.84 16.55L0.84 16.55Q1.41 16.55 1.72 15.93L1.72 15.93L1.72 15.93Q2.03 15.32 2.03 14.18L2.03 14.18ZM15.32 5.18L17.19 11.47L19.38 5.39L19.38 5.39Q19.57 4.84 19.66 4.52L19.66 4.52L19.66 4.52Q19.74 4.20 19.74 3.96L19.74 3.96L19.74 3.96Q19.74 3.60 19.51 3.46L19.51 3.46L19.51 3.46Q19.28 3.33 18.69 3.33L18.69 3.33L18.69 2.80L22.09 2.80L22.09 3.33L22.09 3.33Q21.45 3.33 21.12 3.60L21.12 3.60L21.12 3.60Q20.79 3.86 20.57 4.47L20.57 4.47L17.05 13.72L16.56 13.72L13.87 5.75L10.89 13.72L10.40 13.72L7.49 5.68L7.49 5.68Q7.24 5.01 7.04 4.56L7.04 4.56L7.04 4.56Q6.83 4.10 6.60 3.84L6.60 3.84L6.60 3.84Q6.37 3.57 6.08 3.46L6.08 3.46L6.08 3.46Q5.78 3.35 5.36 3.35L5.36 3.35L5.36 2.80L9.93 2.80L9.93 3.35L9.93 3.35Q9.21 3.35 8.93 3.47L8.93 3.47L8.93 3.47Q8.64 3.60 8.64 3.96L8.64 3.96L8.64 3.96Q8.64 4.14 8.69 4.38L8.69 4.38L8.69 4.38Q8.75 4.62 8.86 4.94L8.86 4.94L10.99 11.42L12.71 6.58L12.71 6.58Q12.91 6.03 13.10 5.56L13.10 5.56L13.10 5.56Q13.29 5.10 13.40 4.72L13.40 4.72L13.40 4.72Q13.20 4.31 13.04 4.05L13.04 4.05L13.04 4.05Q12.88 3.78 12.72 3.63L12.72 3.63L12.72 3.63Q12.56 3.47 12.38 3.41L12.38 3.41L12.38 3.41Q12.21 3.35 12.01 3.35L12.01 3.35L12.01 2.80L16.30 2.80L16.30 3.35L16.30 3.35Q15.89 3.35 15.64 3.37L15.64 3.37L15.64 3.37Q15.39 3.40 15.25 3.46L15.25 3.46L15.25 3.46Q15.12 3.53 15.07 3.64L15.07 3.64L15.07 3.64Q15.02 3.75 15.02 3.91L15.02 3.91L15.02 3.91Q15.02 4.12 15.10 4.42L15.10 4.42L15.10 4.42Q15.18 4.72 15.32 5.18L15.32 5.18ZM32.84 2.80L32.98 5.47L32.41 5.47L32.41 5.47Q32.37 4.87 32.21 4.47L32.21 4.47L32.21 4.47Q32.06 4.06 31.77 3.83L31.77 3.83L31.77 3.83Q31.49 3.60 31.05 3.50L31.05 3.50L31.05 3.50Q30.62 3.40 30.02 3.40L30.02 3.40L30.02 3.40Q29.50 3.40 29.18 3.42L29.18 3.42L29.18 3.42Q28.87 3.44 28.70 3.50L28.70 3.50L28.70 3.50Q28.53 3.56 28.48 3.63L28.48 3.63L28.48 3.63Q28.43 3.71 28.43 3.84L28.43 3.84L28.43 11.33L28.43 11.33Q28.43 11.77 28.50 12.10L28.50 12.10L28.50 12.10Q28.56 12.42 28.75 12.62L28.75 12.62L28.75 12.62Q28.94 12.82 29.29 12.93L29.29 12.93L29.29 12.93Q29.65 13.03 30.24 13.05L30.24 13.05L30.24 13.58L24.95 13.58L24.95 13.05L24.95 13.05Q25.54 13.03 25.90 12.93L25.90 12.93L25.90 12.93Q26.26 12.82 26.45 12.62L26.45 12.62L26.45 12.62Q26.64 12.42 26.70 12.10L26.70 12.10L26.70 12.10Q26.77 11.77 26.77 11.33L26.77 11.33L26.77 3.84L26.77 3.84Q26.77 3.71 26.72 3.63L26.72 3.63L26.72 3.63Q26.67 3.56 26.52 3.50L26.52 3.50L26.52 3.50Q26.38 3.44 26.11 3.42L26.11 3.42L26.11 3.42Q25.84 3.40 25.40 3.40L25.40 3.40L25.40 3.40Q24.85 3.40 24.38 3.44L24.38 3.44L24.38 3.44Q23.91 3.49 23.57 3.69L23.57 3.69L23.57 3.69Q23.23 3.89 23.02 4.31L23.02 4.31L23.02 4.31Q22.81 4.73 22.79 5.47L22.79 5.47L22.27 5.47L22.27 2.80L32.84 2.80Z"></path></g><defs data-v-423bf9ae=""><linearGradient data-v-423bf9ae="" gradientTransform="rotate(25)" id="9e8a8d4d-8112-4744-998e-662c397a387a" x1="0%" y1="0%" x2="100%" y2="0%"><stop data-v-423bf9ae="" offset="0%" style="stop-color: rgb(233, 140, 0); stop-opacity: 1;"></stop><stop data-v-423bf9ae="" offset="100%" style="stop-color: rgb(143, 91, 254); stop-opacity: 1;"></stop></linearGradient></defs><g data-v-423bf9ae="" id="98d3eacc-a6b7-4f7e-ac01-d770cee90fc9" transform="matrix(1.1777777777777778,0,0,1.1777777777777778,-6.377782270643451,-18.266666666666666)" stroke="none" fill="url(#9e8a8d4d-8112-4744-998e-662c397a387a)"><path d="M109 71c-7.2 0-13 5.8-13 13 0 2.5.7 4.8 1.9 6.8l-7.1 7.1a13.117 13.117 0 0 0-13.6 0l-7.1-7.1c1.2-2 1.9-4.3 1.9-6.8 0-7.2-5.8-13-13-13s-13 5.8-13 13 5.8 13 13 13c2.5 0 4.8-.7 6.8-1.9l7.1 7.1c-1.2 2-1.9 4.3-1.9 6.8 0 7.2 5.8 13 13 13s13-5.8 13-13c0-2.5-.7-4.8-1.9-6.8l7.1-7.1c2 1.2 4.3 1.9 6.8 1.9 7.2 0 13-5.8 13-13s-5.8-13-13-13zM59 91c-3.9 0-7-3.1-7-7s3.1-7 7-7 7 3.1 7 7-3.1 7-7 7zm25 25c-3.9 0-7-3.1-7-7s3.1-7 7-7 7 3.1 7 7-3.1 7-7 7zm25-25c-3.9 0-7-3.1-7-7s3.1-7 7-7 7 3.1 7 7-3.1 7-7 7z"></path><path d="M64 16c-18.2 0-33 14.8-33 33v2h-2C16.3 51 6 61.3 6 74s10.3 23 23 23h5c1.7 0 3-1.3 3-3s-1.3-3-3-3h-5c-9.4 0-17-7.6-17-17s7.6-17 17-17h5c1.7 0 3-1.3 3-3v-5c0-14.9 12.1-27 27-27s27 12.1 27 27v5c0 1.7 1.3 3 3 3h5c4.5 0 8.8 1.8 12 5 1.2 1.2 3.1 1.2 4.2 0 1.2-1.2 1.2-3.1 0-4.2-4.3-4.4-10.1-6.8-16.2-6.8h-2v-2c0-18.2-14.8-33-33-33z"></path></g><!----></svg>