<svg data-v-423bf9ae="" xmlns="http://www.w3.org/2000/svg" viewBox="0 0 581 125" width="250" height="150" class="iconLeft"><!----><!----><!----><g data-v-423bf9ae="" id="90d9b60a-a41e-45f2-bdbc-c7cd26fca0b7" fill="#261624" transform="matrix(4.654771360825987,0,0,4.654771360825987,155.6447427467831,20.69219792011524)"><path d="M0.55 15.41L0.49 15.41L0.49 15.41Q0.29 15.41 0.22 15.18L0.22 15.18L0.22 15.18Q0.21 15.13 0.21 15.05L0.21 15.05L0.21 15.05Q0.21 14.88 0.36 14.83L0.36 14.83L0.36 14.83Q1.06 14.53 1.40 13.99L1.40 13.99L1.40 13.99Q1.74 13.44 1.83 12.64L1.83 12.64L1.83 12.64Q1.93 11.83 1.93 10.46L1.93 10.46L1.93 5.53L1.93 5.53Q1.92 5.18 1.87 4.96L1.87 4.96L1.87 4.96Q1.82 4.75 1.62 4.60L1.62 4.60L1.62 4.60Q1.43 4.45 1.02 4.45L1.02 4.45L0.94 4.45L0.94 4.45Q0.80 4.45 0.73 4.40L0.73 4.40L0.73 4.40Q0.67 4.35 0.66 4.16L0.66 4.16L0.66 4.16Q0.66 4.03 0.73 3.94L0.73 3.94L0.73 3.94Q0.80 3.85 0.91 3.85L0.91 3.85L0.91 3.85Q1.81 3.89 2.58 3.89L2.58 3.89L2.58 3.89Q3.43 3.89 4.33 3.85L4.33 3.85L4.33 3.85Q4.45 3.85 4.51 3.94L4.51 3.94L4.51 3.94Q4.58 4.03 4.58 4.16L4.58 4.16L4.58 4.16Q4.56 4.37 4.49 4.41L4.49 4.41L4.49 4.41Q4.41 4.45 4.21 4.45L4.21 4.45L4.21 4.45Q3.81 4.45 3.61 4.60L3.61 4.60L3.61 4.60Q3.42 4.75 3.37 4.96L3.37 4.96L3.37 4.96Q3.32 5.18 3.30 5.53L3.30 5.53L3.30 10.93L3.30 10.93Q3.30 12.74 2.67 13.90L2.67 13.90L2.67 13.90Q2.03 15.05 0.55 15.41L0.55 15.41ZM8.89 12.89L8.89 12.89Q7.94 12.89 7.20 12.44L7.20 12.44L7.20 12.44Q6.45 11.98 6.04 11.24L6.04 11.24L6.04 11.24Q5.63 10.49 5.63 9.65L5.63 9.65L5.63 9.65Q5.63 8.60 6.12 7.82L6.12 7.82L6.12 7.82Q6.61 7.04 7.36 6.63L7.36 6.63L7.36 6.63Q8.12 6.22 8.89 6.22L8.89 6.22L8.89 6.22Q9.84 6.22 10.58 6.67L10.58 6.67L10.58 6.67Q11.33 7.13 11.74 7.88L11.74 7.88L11.74 7.88Q12.15 8.62 12.15 9.46L12.15 9.46L12.15 9.46Q12.15 10.51 11.66 11.29L11.66 11.29L11.66 11.29Q11.16 12.07 10.40 12.48L10.40 12.48L10.40 12.48Q9.65 12.89 8.89 12.89L8.89 12.89ZM8.89 12.38L8.89 12.38Q9.84 12.38 10.28 11.56L10.28 11.56L10.28 11.56Q10.72 10.75 10.72 9.46L10.72 9.46L10.72 9.46Q10.72 8.26 10.27 7.50L10.27 7.50L10.27 7.50Q9.81 6.73 8.89 6.73L8.89 6.73L8.89 6.73Q7.92 6.73 7.49 7.53L7.49 7.53L7.49 7.53Q7.06 8.33 7.06 9.62L7.06 9.62L7.06 9.62Q7.06 10.82 7.50 11.60L7.50 11.60L7.50 11.60Q7.95 12.38 8.89 12.38L8.89 12.38ZM14.08 12.92L14.08 12.92Q13.96 12.92 13.89 12.85L13.89 12.85L13.89 12.85Q13.82 12.77 13.82 12.64L13.82 12.64L13.82 4.47L13.82 4.47Q13.82 4.10 13.80 3.93L13.80 3.93L13.80 3.93Q13.78 3.77 13.62 3.64L13.62 3.64L13.62 3.64Q13.47 3.51 13.10 3.51L13.10 3.51L13.10 3.51Q12.94 3.51 12.85 3.46L12.85 3.46L12.85 3.46Q12.77 3.42 12.77 3.23L12.77 3.23L12.77 3.23Q12.77 3.15 12.82 3.07L12.82 3.07L12.82 3.07Q12.88 3.00 12.99 2.98L12.99 2.98L12.99 2.98Q13.87 2.86 14.50 2.62L14.50 2.62L14.50 2.62Q14.70 2.55 14.83 2.53L14.83 2.53L14.87 2.53L14.87 2.53Q15.09 2.53 15.09 2.80L15.09 2.80L15.09 7.03L15.13 7.03L15.13 7.03Q15.54 6.62 16.05 6.42L16.05 6.42L16.05 6.42Q16.56 6.22 17.07 6.22L17.07 6.22L17.07 6.22Q17.89 6.22 18.56 6.64L18.56 6.64L18.56 6.64Q19.24 7.06 19.62 7.81L19.62 7.81L19.62 7.81Q20.01 8.55 20.01 9.51L20.01 9.51L20.01 9.51Q20.01 10.44 19.57 11.22L19.57 11.22L19.57 11.22Q19.12 12.00 18.38 12.45L18.38 12.45L18.38 12.45Q17.64 12.89 16.80 12.89L16.80 12.89L16.80 12.89Q15.55 12.89 14.64 12.21L14.64 12.21L14.57 12.21L14.57 12.21Q14.52 12.32 14.45 12.52L14.45 12.52L14.45 12.52Q14.38 12.71 14.29 12.82L14.29 12.82L14.29 12.82Q14.21 12.92 14.08 12.92L14.08 12.92ZM16.67 12.42L16.67 12.42Q17.53 12.42 18.05 11.64L18.05 11.64L18.05 11.64Q18.58 10.86 18.58 9.56L18.58 9.56L18.58 9.56Q18.58 8.47 18.07 7.69L18.07 7.69L18.07 7.69Q17.57 6.92 16.58 6.92L16.58 6.92L16.58 6.92Q15.69 6.92 15.09 7.56L15.09 7.56L15.09 11.26L15.09 11.26Q15.13 11.48 15.34 11.75L15.34 11.75L15.34 11.75Q15.54 12.03 15.88 12.22L15.88 12.22L15.88 12.22Q16.23 12.42 16.67 12.42L16.67 12.42ZM28.71 13.01L28.71 13.01Q27.52 13.01 26.54 12.44L26.54 12.44L26.54 12.44Q25.55 11.87 24.97 10.82L24.97 10.82L24.97 10.82Q24.39 9.77 24.39 8.37L24.39 8.37L24.39 8.37Q24.39 6.96 24.95 5.88L24.95 5.88L24.95 5.88Q25.51 4.80 26.54 4.21L26.54 4.21L26.54 4.21Q27.58 3.61 28.97 3.61L28.97 3.61L28.97 3.61Q30.17 3.61 31.11 4.10L31.11 4.10L31.11 4.10Q32.05 4.58 32.05 5.59L32.05 5.59L32.05 5.59Q32.06 6.22 31.67 6.66L31.67 6.66L31.67 6.66Q31.28 7.10 30.62 7.10L30.62 7.10L30.62 7.10Q30.37 7.10 30.19 7.01L30.19 7.01L30.19 7.01Q30.02 6.92 29.93 6.79L29.93 6.79L29.93 6.79Q29.85 6.66 29.86 6.59L29.86 6.59L29.86 6.59Q29.86 6.57 30.06 6.44L30.06 6.44L30.06 6.44Q30.25 6.31 30.41 6.09L30.41 6.09L30.41 6.09Q30.56 5.87 30.56 5.54L30.56 5.54L30.56 5.54Q30.56 4.91 30.14 4.54L30.14 4.54L30.14 4.54Q29.71 4.17 28.95 4.17L28.95 4.17L28.95 4.17Q28.10 4.17 27.43 4.66L27.43 4.66L27.43 4.66Q26.77 5.14 26.40 6.07L26.40 6.07L26.40 6.07Q26.03 7.00 26.03 8.29L26.03 8.29L26.03 8.29Q26.03 9.41 26.43 10.33L26.43 10.33L26.43 10.33Q26.82 11.24 27.55 11.78L27.55 11.78L27.55 11.78Q28.28 12.32 29.22 12.32L29.22 12.32L29.22 12.32Q29.97 12.32 30.51 12.01L30.51 12.01L30.51 12.01Q31.05 11.69 31.49 10.99L31.49 10.99L31.49 10.99Q31.56 10.86 31.68 10.86L31.68 10.86L31.68 10.86Q31.79 10.86 31.93 10.95L31.93 10.95L31.93 10.95Q32.16 11.10 32.16 11.26L32.16 11.26L32.16 11.26Q32.16 11.34 32.10 11.40L32.10 11.40L32.10 11.40Q31.57 12.07 31.10 12.41L31.10 12.41L31.10 12.41Q30.63 12.75 30.09 12.88L30.09 12.88L30.09 12.88Q29.54 13.01 28.71 13.01L28.71 13.01ZM33.19 12.77L33.19 12.77Q33.10 12.77 33.03 12.68L33.03 12.68L33.03 12.68Q32.97 12.60 32.97 12.49L32.97 12.49L32.97 12.49Q32.98 12.31 33.05 12.27L33.05 12.27L33.05 12.27Q33.11 12.24 33.29 12.24L33.29 12.24L33.29 12.24Q33.66 12.24 33.81 12.11L33.81 12.11L33.81 12.11Q33.96 11.98 33.99 11.82L33.99 11.82L33.99 11.82Q34.02 11.65 34.02 11.28L34.02 11.28L34.02 4.45L34.02 4.45Q34.02 4.09 34.00 3.92L34.00 3.92L34.00 3.92Q33.98 3.75 33.82 3.63L33.82 3.63L33.82 3.63Q33.67 3.50 33.31 3.50L33.31 3.50L33.31 3.50Q33.14 3.50 33.05 3.45L33.05 3.45L33.05 3.45Q32.97 3.40 32.97 3.22L32.97 3.22L32.97 3.22Q32.97 3.14 33.03 3.06L33.03 3.06L33.03 3.06Q33.08 2.98 33.19 2.97L33.19 2.97L33.19 2.97Q34.08 2.84 34.71 2.60L34.71 2.60L34.71 2.60Q34.90 2.53 35.03 2.52L35.03 2.52L35.07 2.52L35.07 2.52Q35.29 2.52 35.29 2.79L35.29 2.79L35.29 11.28L35.29 11.28Q35.29 11.65 35.32 11.82L35.32 11.82L35.32 11.82Q35.35 11.98 35.50 12.11L35.50 12.11L35.50 12.11Q35.66 12.24 36.02 12.24L36.02 12.24L36.11 12.24L36.11 12.24Q36.22 12.24 36.27 12.28L36.27 12.28L36.27 12.28Q36.33 12.32 36.34 12.49L36.34 12.49L36.34 12.49Q36.34 12.60 36.29 12.68L36.29 12.68L36.29 12.68Q36.23 12.77 36.12 12.77L36.12 12.77L36.12 12.77Q35.31 12.73 34.65 12.73L34.65 12.73L34.65 12.73Q34.02 12.73 33.19 12.77L33.19 12.77ZM40.49 12.89L40.49 12.89Q39.54 12.89 38.79 12.44L38.79 12.44L38.79 12.44Q38.05 11.98 37.64 11.24L37.64 11.24L37.64 11.24Q37.23 10.49 37.23 9.65L37.23 9.65L37.23 9.65Q37.23 8.60 37.72 7.82L37.72 7.82L37.72 7.82Q38.21 7.04 38.96 6.63L38.96 6.63L38.96 6.63Q39.72 6.22 40.49 6.22L40.49 6.22L40.49 6.22Q41.44 6.22 42.18 6.67L42.18 6.67L42.18 6.67Q42.92 7.13 43.34 7.88L43.34 7.88L43.34 7.88Q43.75 8.62 43.75 9.46L43.75 9.46L43.75 9.46Q43.75 10.51 43.25 11.29L43.25 11.29L43.25 11.29Q42.76 12.07 42 12.48L42 12.48L42 12.48Q41.24 12.89 40.49 12.89L40.49 12.89ZM40.49 12.38L40.49 12.38Q41.44 12.38 41.88 11.56L41.88 11.56L41.88 11.56Q42.32 10.75 42.32 9.46L42.32 9.46L42.32 9.46Q42.32 8.26 41.87 7.50L41.87 7.50L41.87 7.50Q41.41 6.73 40.49 6.73L40.49 6.73L40.49 6.73Q39.52 6.73 39.09 7.53L39.09 7.53L39.09 7.53Q38.65 8.33 38.65 9.62L38.65 9.62L38.65 9.62Q38.65 10.82 39.10 11.60L39.10 11.60L39.10 11.60Q39.55 12.38 40.49 12.38L40.49 12.38ZM47.68 12.89L47.68 12.89Q46.73 12.89 46.17 12.32L46.17 12.32L46.17 12.32Q45.61 11.75 45.61 10.81L45.61 10.81L45.61 8.22L45.61 8.22Q45.61 7.85 45.59 7.69L45.59 7.69L45.59 7.69Q45.57 7.52 45.42 7.39L45.42 7.39L45.42 7.39Q45.26 7.27 44.90 7.27L44.90 7.27L44.90 7.27Q44.73 7.27 44.65 7.22L44.65 7.22L44.65 7.22Q44.56 7.17 44.56 6.99L44.56 6.99L44.56 6.99Q44.56 6.90 44.62 6.83L44.62 6.83L44.62 6.83Q44.67 6.75 44.79 6.73L44.79 6.73L44.79 6.73Q45.67 6.61 46.30 6.37L46.30 6.37L46.30 6.37Q46.49 6.30 46.62 6.29L46.62 6.29L46.66 6.29L46.66 6.29Q46.89 6.29 46.89 6.55L46.89 6.55L46.89 10.79L46.89 10.79Q46.89 11.44 47.29 11.78L47.29 11.78L47.29 11.78Q47.70 12.12 48.23 12.12L48.23 12.12L48.23 12.12Q48.89 12.12 49.35 11.80L49.35 11.80L49.35 11.80Q49.81 11.48 49.97 11.16L49.97 11.16L49.97 8.22L49.97 8.22Q49.97 7.85 49.95 7.69L49.95 7.69L49.95 7.69Q49.92 7.52 49.77 7.39L49.77 7.39L49.77 7.39Q49.62 7.27 49.25 7.27L49.25 7.27L49.25 7.27Q49.08 7.27 49 7.22L49 7.22L49 7.22Q48.92 7.17 48.92 6.99L48.92 6.99L48.92 6.99Q48.92 6.90 48.97 6.83L48.97 6.83L48.97 6.83Q49.03 6.75 49.14 6.73L49.14 6.73L49.14 6.73Q50.02 6.61 50.65 6.37L50.65 6.37L50.65 6.37Q50.85 6.30 50.97 6.29L50.97 6.29L51.02 6.29L51.02 6.29Q51.24 6.29 51.24 6.55L51.24 6.55L51.24 11.40L51.24 11.40Q51.24 12.22 52.35 12.22L52.35 12.22L52.35 12.22Q52.58 12.22 52.58 12.49L52.58 12.49L52.58 12.49Q52.58 12.68 52.35 12.73L52.35 12.73L50.09 12.88L50.09 12.88Q49.99 12.88 49.98 12.82L49.98 12.82L49.98 12.82Q49.97 12.75 49.97 12.60L49.97 12.60L49.97 11.82L49.94 11.82L49.94 11.82Q49.53 12.19 49.28 12.40L49.28 12.40L49.28 12.40Q49.03 12.60 48.63 12.75L48.63 12.75L48.63 12.75Q48.23 12.89 47.68 12.89L47.68 12.89ZM56.18 12.89L56.18 12.89Q55.40 12.89 54.73 12.47L54.73 12.47L54.73 12.47Q54.05 12.04 53.65 11.28L53.65 11.28L53.65 11.28Q53.24 10.51 53.24 9.55L53.24 9.55L53.24 9.55Q53.24 8.68 53.66 7.91L53.66 7.91L53.66 7.91Q54.08 7.14 54.82 6.68L54.82 6.68L54.82 6.68Q55.57 6.22 56.48 6.22L56.48 6.22L56.48 6.22Q56.91 6.22 57.34 6.32L57.34 6.32L57.34 6.32Q57.78 6.43 58.10 6.61L58.10 6.61L58.14 6.61L58.14 4.47L58.14 4.47Q58.14 4.10 58.12 3.93L58.12 3.93L58.12 3.93Q58.10 3.77 57.95 3.64L57.95 3.64L57.95 3.64Q57.79 3.51 57.43 3.51L57.43 3.51L57.43 3.51Q57.26 3.51 57.18 3.46L57.18 3.46L57.18 3.46Q57.09 3.42 57.09 3.23L57.09 3.23L57.09 3.23Q57.09 3.15 57.15 3.07L57.15 3.07L57.15 3.07Q57.20 3.00 57.32 2.98L57.32 2.98L57.32 2.98Q58.20 2.86 58.83 2.62L58.83 2.62L58.83 2.62Q59.02 2.55 59.15 2.53L59.15 2.53L59.19 2.53L59.19 2.53Q59.42 2.53 59.42 2.80L59.42 2.80L59.42 11.44L59.42 11.44Q59.42 12.26 60.51 12.26L60.51 12.26L60.51 12.26Q60.75 12.26 60.75 12.49L60.75 12.49L60.75 12.49Q60.75 12.68 60.51 12.73L60.51 12.73L58.28 12.88L58.28 12.88Q58.18 12.88 58.17 12.82L58.17 12.82L58.17 12.82Q58.16 12.75 58.16 12.60L58.16 12.60L58.16 12.04L58.11 12.04L58.11 12.04Q57.75 12.42 57.23 12.66L57.23 12.66L57.23 12.66Q56.70 12.89 56.18 12.89L56.18 12.89ZM56.66 12.19L56.66 12.19Q57.15 12.19 57.49 12.01L57.49 12.01L57.49 12.01Q57.83 11.82 58.14 11.49L58.14 11.49L58.14 7.80L58.14 7.80Q58.02 7.39 57.62 7.06L57.62 7.06L57.62 7.06Q57.22 6.72 56.62 6.72L56.62 6.72L56.62 6.72Q56.07 6.72 55.63 7.06L55.63 7.06L55.63 7.06Q55.19 7.41 54.94 8.06L54.94 8.06L54.94 8.06Q54.68 8.72 54.68 9.62L54.68 9.62L54.68 9.62Q54.68 10.70 55.20 11.45L55.20 11.45L55.20 11.45Q55.71 12.19 56.66 12.19L56.66 12.19ZM66.42 12.77L66.42 12.77Q66.29 12.77 66.23 12.68L66.23 12.68L66.23 12.68Q66.16 12.59 66.16 12.46L66.16 12.46L66.16 12.46Q66.18 12.25 66.25 12.21L66.25 12.21L66.25 12.21Q66.32 12.17 66.51 12.17L66.51 12.17L66.51 12.17Q66.92 12.17 67.12 12.02L67.12 12.02L67.12 12.02Q67.31 11.87 67.36 11.66L67.36 11.66L67.36 11.66Q67.41 11.44 67.42 11.09L67.42 11.09L67.42 4.41L66.46 4.41L66.46 4.41Q65.98 4.42 65.72 4.61L65.72 4.61L65.72 4.61Q65.46 4.80 65.33 5.17L65.33 5.17L65.33 5.17Q65.20 5.54 65.10 6.23L65.10 6.23L65.10 6.23Q65.09 6.34 64.93 6.41L64.93 6.41L64.93 6.41Q64.78 6.48 64.61 6.48L64.61 6.48L64.61 6.48Q64.48 6.48 64.38 6.41L64.38 6.41L64.38 6.41Q64.27 6.33 64.27 6.20L64.27 6.20L64.32 4.23L64.32 4.23Q64.32 3.89 64.69 3.89L64.69 3.89L71.54 3.89L71.54 3.89Q71.90 3.89 71.90 4.23L71.90 4.23L71.96 6.20L71.96 6.20Q71.96 6.33 71.85 6.41L71.85 6.41L71.85 6.41Q71.74 6.48 71.61 6.48L71.61 6.48L71.61 6.48Q71.44 6.48 71.30 6.41L71.30 6.41L71.30 6.41Q71.15 6.34 71.13 6.23L71.13 6.23L71.13 6.23Q71.02 5.53 70.90 5.17L70.90 5.17L70.90 5.17Q70.77 4.80 70.50 4.61L70.50 4.61L70.50 4.61Q70.24 4.42 69.76 4.41L69.76 4.41L68.81 4.41L68.81 11.09L68.81 11.09Q68.82 11.44 68.87 11.66L68.87 11.66L68.87 11.66Q68.92 11.87 69.12 12.02L69.12 12.02L69.12 12.02Q69.31 12.17 69.72 12.17L69.72 12.17L69.80 12.17L69.80 12.17Q69.93 12.17 69.99 12.22L69.99 12.22L69.99 12.22Q70.06 12.26 70.07 12.46L70.07 12.46L70.07 12.46Q70.07 12.59 70.01 12.68L70.01 12.68L70.01 12.68Q69.94 12.77 69.82 12.77L69.82 12.77L69.82 12.77Q68.92 12.73 68.17 12.73L68.17 12.73L68.17 12.73Q67.33 12.73 66.42 12.77L66.42 12.77ZM76.15 12.89L76.15 12.89Q75.19 12.89 74.45 12.44L74.45 12.44L74.45 12.44Q73.71 11.98 73.30 11.24L73.30 11.24L73.30 11.24Q72.88 10.49 72.88 9.65L72.88 9.65L72.88 9.65Q72.88 8.60 73.37 7.82L73.37 7.82L73.37 7.82Q73.86 7.04 74.62 6.63L74.62 6.63L74.62 6.63Q75.38 6.22 76.15 6.22L76.15 6.22L76.15 6.22Q77.10 6.22 77.84 6.67L77.84 6.67L77.84 6.67Q78.58 7.13 79.00 7.88L79.00 7.88L79.00 7.88Q79.41 8.62 79.41 9.46L79.41 9.46L79.41 9.46Q79.41 10.51 78.91 11.29L78.91 11.29L78.91 11.29Q78.41 12.07 77.66 12.48L77.66 12.48L77.66 12.48Q76.90 12.89 76.15 12.89L76.15 12.89ZM76.15 12.38L76.15 12.38Q77.10 12.38 77.54 11.56L77.54 11.56L77.54 11.56Q77.98 10.75 77.98 9.46L77.98 9.46L77.98 9.46Q77.98 8.26 77.53 7.50L77.53 7.50L77.53 7.50Q77.07 6.73 76.15 6.73L76.15 6.73L76.15 6.73Q75.18 6.73 74.75 7.53L74.75 7.53L74.75 7.53Q74.31 8.33 74.31 9.62L74.31 9.62L74.31 9.62Q74.31 10.82 74.76 11.60L74.76 11.60L74.76 11.60Q75.21 12.38 76.15 12.38L76.15 12.38ZM83.82 12.89L83.82 12.89Q82.87 12.89 82.12 12.44L82.12 12.44L82.12 12.44Q81.38 11.98 80.97 11.24L80.97 11.24L80.97 11.24Q80.56 10.49 80.56 9.65L80.56 9.65L80.56 9.65Q80.56 8.60 81.05 7.82L81.05 7.82L81.05 7.82Q81.54 7.04 82.29 6.63L82.29 6.63L82.29 6.63Q83.05 6.22 83.82 6.22L83.82 6.22L83.82 6.22Q84.77 6.22 85.51 6.67L85.51 6.67L85.51 6.67Q86.25 7.13 86.67 7.88L86.67 7.88L86.67 7.88Q87.08 8.62 87.08 9.46L87.08 9.46L87.08 9.46Q87.08 10.51 86.58 11.29L86.58 11.29L86.58 11.29Q86.09 12.07 85.33 12.48L85.33 12.48L85.33 12.48Q84.57 12.89 83.82 12.89L83.82 12.89ZM83.82 12.38L83.82 12.38Q84.77 12.38 85.21 11.56L85.21 11.56L85.21 11.56Q85.65 10.75 85.65 9.46L85.65 9.46L85.65 9.46Q85.65 8.26 85.20 7.50L85.20 7.50L85.20 7.50Q84.74 6.73 83.82 6.73L83.82 6.73L83.82 6.73Q82.85 6.73 82.42 7.53L82.42 7.53L82.42 7.53Q81.98 8.33 81.98 9.62L81.98 9.62L81.98 9.62Q81.98 10.82 82.43 11.60L82.43 11.60L82.43 11.60Q82.88 12.38 83.82 12.38L83.82 12.38ZM88.20 12.77L88.20 12.77Q88.10 12.77 88.04 12.68L88.04 12.68L88.04 12.68Q87.98 12.60 87.98 12.49L87.98 12.49L87.98 12.49Q87.99 12.31 88.05 12.27L88.05 12.27L88.05 12.27Q88.12 12.24 88.30 12.24L88.30 12.24L88.30 12.24Q88.66 12.24 88.82 12.11L88.82 12.11L88.82 12.11Q88.97 11.98 89.00 11.82L89.00 11.82L89.00 11.82Q89.03 11.65 89.03 11.28L89.03 11.28L89.03 4.45L89.03 4.45Q89.03 4.09 89.00 3.92L89.00 3.92L89.00 3.92Q88.98 3.75 88.83 3.63L88.83 3.63L88.83 3.63Q88.68 3.50 88.31 3.50L88.31 3.50L88.31 3.50Q88.14 3.50 88.06 3.45L88.06 3.45L88.06 3.45Q87.98 3.40 87.98 3.22L87.98 3.22L87.98 3.22Q87.98 3.14 88.03 3.06L88.03 3.06L88.03 3.06Q88.09 2.98 88.20 2.97L88.20 2.97L88.20 2.97Q89.08 2.84 89.71 2.60L89.71 2.60L89.71 2.60Q89.91 2.53 90.03 2.52L90.03 2.52L90.08 2.52L90.08 2.52Q90.30 2.52 90.30 2.79L90.30 2.79L90.30 11.28L90.30 11.28Q90.30 11.65 90.33 11.82L90.33 11.82L90.33 11.82Q90.36 11.98 90.51 12.11L90.51 12.11L90.51 12.11Q90.66 12.24 91.03 12.24L91.03 12.24L91.11 12.24L91.11 12.24Q91.22 12.24 91.28 12.28L91.28 12.28L91.28 12.28Q91.34 12.32 91.35 12.49L91.35 12.49L91.35 12.49Q91.35 12.60 91.29 12.68L91.29 12.68L91.29 12.68Q91.24 12.77 91.13 12.77L91.13 12.77L91.13 12.77Q90.31 12.73 89.66 12.73L89.66 12.73L89.66 12.73Q89.03 12.73 88.20 12.77L88.20 12.77Z"></path></g><defs data-v-423bf9ae=""><linearGradient data-v-423bf9ae="" gradientTransform="rotate(25)" id="86d8825c-e500-4274-ac51-073a75c0a8e7" x1="0%" y1="0%" x2="100%" y2="0%"><stop data-v-423bf9ae="" offset="0%" style="stop-color: rgb(233, 140, 0); stop-opacity: 1;"></stop><stop data-v-423bf9ae="" offset="100%" style="stop-color: rgb(143, 91, 254); stop-opacity: 1;"></stop></linearGradient></defs><g data-v-423bf9ae="" id="bdfeabfb-a4f3-47d6-9c3f-78a6d17005ef" transform="matrix(1.1777777777777778,0,0,1.1777777777777778,-6.377782270643451,-18.266666666666666)" stroke="none" fill="url(#86d8825c-e500-4274-ac51-073a75c0a8e7)"><path d="M109 71c-7.2 0-13 5.8-13 13 0 2.5.7 4.8 1.9 6.8l-7.1 7.1a13.117 13.117 0 0 0-13.6 0l-7.1-7.1c1.2-2 1.9-4.3 1.9-6.8 0-7.2-5.8-13-13-13s-13 5.8-13 13 5.8 13 13 13c2.5 0 4.8-.7 6.8-1.9l7.1 7.1c-1.2 2-1.9 4.3-1.9 6.8 0 7.2 5.8 13 13 13s13-5.8 13-13c0-2.5-.7-4.8-1.9-6.8l7.1-7.1c2 1.2 4.3 1.9 6.8 1.9 7.2 0 13-5.8 13-13s-5.8-13-13-13zM59 91c-3.9 0-7-3.1-7-7s3.1-7 7-7 7 3.1 7 7-3.1 7-7 7zm25 25c-3.9 0-7-3.1-7-7s3.1-7 7-7 7 3.1 7 7-3.1 7-7 7zm25-25c-3.9 0-7-3.1-7-7s3.1-7 7-7 7 3.1 7 7-3.1 7-7 7z"></path><path d="M64 16c-18.2 0-33 14.8-33 33v2h-2C16.3 51 6 61.3 6 74s10.3 23 23 23h5c1.7 0 3-1.3 3-3s-1.3-3-3-3h-5c-9.4 0-17-7.6-17-17s7.6-17 17-17h5c1.7 0 3-1.3 3-3v-5c0-14.9 12.1-27 27-27s27 12.1 27 27v5c0 1.7 1.3 3 3 3h5c4.5 0 8.8 1.8 12 5 1.2 1.2 3.1 1.2 4.2 0 1.2-1.2 1.2-3.1 0-4.2-4.3-4.4-10.1-6.8-16.2-6.8h-2v-2c0-18.2-14.8-33-33-33z"></path></g><!----></svg>