<svg data-v-423bf9ae="" xmlns="http://www.w3.org/2000/svg" viewBox="0 0 277 125" width="150" height="50" class="iconLeft"><!----><!----><!----><g data-v-423bf9ae="" id="0a7282d4-325a-450f-a365-7248753f8f9f" fill="#261624" transform="matrix(4.120879272032072,0,0,4.120879272032072,162.96839200452732,21.46068411224085)"><path d="M2.03 14.18L2.03 4.93L2.03 4.93Q2.03 4.44 1.98 4.14L1.98 4.14L1.98 4.14Q1.93 3.84 1.79 3.66L1.79 3.66L1.79 3.66Q1.64 3.49 1.36 3.42L1.36 3.42L1.36 3.42Q1.08 3.36 0.63 3.33L0.63 3.33L0.63 2.80L4.89 2.80L4.89 3.33L4.89 3.33Q4.44 3.35 4.17 3.42L4.17 3.42L4.17 3.42Q3.89 3.49 3.75 3.67L3.75 3.67L3.75 3.67Q3.60 3.85 3.55 4.17L3.55 4.17L3.55 4.17Q3.50 4.49 3.50 5.03L3.50 5.03L3.50 13.61L3.50 13.61Q3.50 15.37 2.76 16.30L2.76 16.30L2.76 16.30Q2.02 17.22 0.59 17.22L0.59 17.22L0.59 17.22Q-0.38 17.22-0.96 16.85L-0.96 16.85L-0.96 16.85Q-1.54 16.48-1.54 15.86L-1.54 15.86L-1.54 15.86Q-1.54 15.50-1.35 15.31L-1.35 15.31L-1.35 15.31Q-1.16 15.12-0.83 15.12L-0.83 15.12L-0.83 15.12Q-0.56 15.12-0.40 15.25L-0.40 15.25L-0.40 15.25Q-0.24 15.39-0.03 15.78L-0.03 15.78L-0.03 15.78Q0.21 16.23 0.39 16.39L0.39 16.39L0.39 16.39Q0.56 16.55 0.84 16.55L0.84 16.55L0.84 16.55Q1.41 16.55 1.72 15.93L1.72 15.93L1.72 15.93Q2.03 15.32 2.03 14.18L2.03 14.18ZM14.78 3.67L15.04 2.80L15.43 2.80L15.55 6.02L15.04 6.02L15.04 6.02Q14.73 4.79 13.85 4.09L13.85 4.09L13.85 4.09Q12.96 3.39 11.72 3.39L11.72 3.39L11.72 3.39Q10.86 3.39 10.19 3.72L10.19 3.72L10.19 3.72Q9.52 4.06 9.06 4.69L9.06 4.69L9.06 4.69Q8.60 5.32 8.35 6.23L8.35 6.23L8.35 6.23Q8.11 7.14 8.11 8.29L8.11 8.29L8.11 8.29Q8.11 10.54 9.04 11.75L9.04 11.75L9.04 11.75Q9.98 12.96 11.76 12.96L11.76 12.96L11.76 12.96Q14.46 12.96 15.23 10.09L15.23 10.09L15.81 10.09L15.81 13.58L15.32 13.58L14.99 12.47L14.99 12.47Q13.52 13.72 11.44 13.72L11.44 13.72L11.44 13.72Q10.25 13.72 9.29 13.34L9.29 13.34L9.29 13.34Q8.33 12.96 7.65 12.27L7.65 12.27L7.65 12.27Q6.97 11.58 6.60 10.58L6.60 10.58L6.60 10.58Q6.23 9.59 6.23 8.37L6.23 8.37L6.23 8.37Q6.23 7.10 6.62 6.05L6.62 6.05L6.62 6.05Q7.01 5.00 7.72 4.24L7.72 4.24L7.72 4.24Q8.43 3.49 9.41 3.07L9.41 3.07L9.41 3.07Q10.40 2.66 11.59 2.66L11.59 2.66L11.59 2.66Q12.43 2.66 13.17 2.90L13.17 2.90L13.17 2.90Q13.92 3.14 14.78 3.67L14.78 3.67ZM27.48 2.80L27.62 5.47L27.05 5.47L27.05 5.47Q27.01 4.87 26.85 4.47L26.85 4.47L26.85 4.47Q26.70 4.06 26.41 3.83L26.41 3.83L26.41 3.83Q26.12 3.60 25.69 3.50L25.69 3.50L25.69 3.50Q25.26 3.40 24.65 3.40L24.65 3.40L24.65 3.40Q24.14 3.40 23.82 3.42L23.82 3.42L23.82 3.42Q23.51 3.44 23.34 3.50L23.34 3.50L23.34 3.50Q23.17 3.56 23.12 3.63L23.12 3.63L23.12 3.63Q23.07 3.71 23.07 3.84L23.07 3.84L23.07 11.33L23.07 11.33Q23.07 11.77 23.13 12.10L23.13 12.10L23.13 12.10Q23.20 12.42 23.39 12.62L23.39 12.62L23.39 12.62Q23.58 12.82 23.93 12.93L23.93 12.93L23.93 12.93Q24.29 13.03 24.88 13.05L24.88 13.05L24.88 13.58L19.59 13.58L19.59 13.05L19.59 13.05Q20.17 13.03 20.54 12.93L20.54 12.93L20.54 12.93Q20.90 12.82 21.09 12.62L21.09 12.62L21.09 12.62Q21.28 12.42 21.34 12.10L21.34 12.10L21.34 12.10Q21.41 11.77 21.41 11.33L21.41 11.33L21.41 3.84L21.41 3.84Q21.41 3.71 21.36 3.63L21.36 3.63L21.36 3.63Q21.31 3.56 21.16 3.50L21.16 3.50L21.16 3.50Q21.01 3.44 20.75 3.42L20.75 3.42L20.75 3.42Q20.48 3.40 20.03 3.40L20.03 3.40L20.03 3.40Q19.49 3.40 19.02 3.44L19.02 3.44L19.02 3.44Q18.55 3.49 18.21 3.69L18.21 3.69L18.21 3.69Q17.86 3.89 17.65 4.31L17.65 4.31L17.65 4.31Q17.44 4.73 17.43 5.47L17.43 5.47L16.91 5.47L16.91 2.80L27.48 2.80Z"></path></g><defs data-v-423bf9ae=""><linearGradient data-v-423bf9ae="" gradientTransform="rotate(25)" id="b81bb838-4e6b-421b-9720-f6efcd81e8e4" x1="0%" y1="0%" x2="100%" y2="0%"><stop data-v-423bf9ae="" offset="0%" style="stop-color: rgb(233, 140, 0); stop-opacity: 1;"></stop><stop data-v-423bf9ae="" offset="100%" style="stop-color: rgb(143, 91, 254); stop-opacity: 1;"></stop></linearGradient></defs><g data-v-423bf9ae="" id="4bc7f008-7208-4d71-8631-dcdb97b55b53" transform="matrix(1.1777777777777778,0,0,1.1777777777777778,-6.377782270643451,-18.266666666666666)" stroke="none" fill="url(#b81bb838-4e6b-421b-9720-f6efcd81e8e4)"><path d="M109 71c-7.2 0-13 5.8-13 13 0 2.5.7 4.8 1.9 6.8l-7.1 7.1a13.117 13.117 0 0 0-13.6 0l-7.1-7.1c1.2-2 1.9-4.3 1.9-6.8 0-7.2-5.8-13-13-13s-13 5.8-13 13 5.8 13 13 13c2.5 0 4.8-.7 6.8-1.9l7.1 7.1c-1.2 2-1.9 4.3-1.9 6.8 0 7.2 5.8 13 13 13s13-5.8 13-13c0-2.5-.7-4.8-1.9-6.8l7.1-7.1c2 1.2 4.3 1.9 6.8 1.9 7.2 0 13-5.8 13-13s-5.8-13-13-13zM59 91c-3.9 0-7-3.1-7-7s3.1-7 7-7 7 3.1 7 7-3.1 7-7 7zm25 25c-3.9 0-7-3.1-7-7s3.1-7 7-7 7 3.1 7 7-3.1 7-7 7zm25-25c-3.9 0-7-3.1-7-7s3.1-7 7-7 7 3.1 7 7-3.1 7-7 7z"></path><path d="M64 16c-18.2 0-33 14.8-33 33v2h-2C16.3 51 6 61.3 6 74s10.3 23 23 23h5c1.7 0 3-1.3 3-3s-1.3-3-3-3h-5c-9.4 0-17-7.6-17-17s7.6-17 17-17h5c1.7 0 3-1.3 3-3v-5c0-14.9 12.1-27 27-27s27 12.1 27 27v5c0 1.7 1.3 3 3 3h5c4.5 0 8.8 1.8 12 5 1.2 1.2 3.1 1.2 4.2 0 1.2-1.2 1.2-3.1 0-4.2-4.3-4.4-10.1-6.8-16.2-6.8h-2v-2c0-18.2-14.8-33-33-33z"></path></g><!----></svg>